<svg xmlns="http://www.w3.org/2000/svg" width="32" height="32" viewBox="0 0 32 32" fill="none">
  <!-- Chart bars with upward trend -->
  <path d="M4 24V20C4 19.4 4.4 19 5 19H7C7.6 19 8 19.4 8 20V24" stroke="currentColor" stroke-width="1.5" stroke-linecap="round"/>
  <path d="M10 24V15C10 14.4 10.4 14 11 14H13C13.6 14 14 14.4 14 15V24" stroke="currentColor" stroke-width="1.5" stroke-linecap="round"/>
  <path d="M16 24V10C16 9.4 16.4 9 17 9H19C19.6 9 20 9.4 20 10V24" stroke="currentColor" stroke-width="1.5" stroke-linecap="round"/>
  <path d="M22 24V6C22 5.4 22.4 5 23 5H25C25.6 5 26 5.4 26 6V24" stroke="currentColor" stroke-width="1.5" stroke-linecap="round"/>
  
  <!-- Rising trend line -->
  <path d="M5 20L11 15L17 11L23 7" stroke="currentColor" stroke-width="1.5" stroke-linecap="round" stroke-linejoin="round"/>
  
  <!-- Sparkle/AI indicator -->
  <circle cx="26" cy="7" r="1.5" fill="currentColor"/>
  <path d="M28 5L29 7L28 9" stroke="currentColor" stroke-width="1" stroke-linecap="round"/>
  <path d="M24 5L23 7L24 9" stroke="currentColor" stroke-width="1" stroke-linecap="round"/>
  
  <!-- Base line -->
  <path d="M3 26H29" stroke="currentColor" stroke-width="1.5" stroke-linecap="round"/>
</svg>
